<?xml version="1.0" encoding="UTF-8"?>
<svg xmlns="http://www.w3.org/2000/svg" xmlns:xlink="http://www.w3.org/1999/xlink" width="20pt" height="20pt" viewBox="0 0 20 20" version="1.1">
<g id="surface1">
<path style=" stroke:none;fill-rule:nonzero;fill:rgb(0%,0%,0%);fill-opacity:1;" d="M 10 0.3125 C 4.648438 0.3125 0.3125 4.648438 0.3125 10 C 0.3125 15.351562 4.648438 19.6875 10 19.6875 C 15.351562 19.6875 19.6875 15.351562 19.6875 10 C 19.6875 4.648438 15.351562 0.3125 10 0.3125 Z M 14.75 12.542969 C 14.933594 12.726562 14.933594 13.023438 14.75 13.207031 L 13.203125 14.75 C 13.019531 14.933594 12.722656 14.933594 12.539062 14.75 L 10 12.1875 L 7.457031 14.75 C 7.273438 14.933594 6.976562 14.933594 6.792969 14.75 L 5.25 13.203125 C 5.066406 13.019531 5.066406 12.722656 5.25 12.539062 L 7.8125 10 L 5.25 7.457031 C 5.066406 7.273438 5.066406 6.976562 5.25 6.792969 L 6.796875 5.246094 C 6.980469 5.0625 7.277344 5.0625 7.460938 5.246094 L 10 7.8125 L 12.542969 5.25 C 12.726562 5.066406 13.023438 5.066406 13.207031 5.25 L 14.753906 6.796875 C 14.9375 6.980469 14.9375 7.277344 14.753906 7.460938 L 12.1875 10 Z M 14.75 12.542969 "/>
</g>
</svg>
